[img]http://img4.imageshack.us/img4/9278/winwinf.jpg[/img]
[code]
Win Win 2011 BRRIP XViD - IMAGiNE

Ripper ...........: IMAGiNE                                      IMDB Rating.......:7.7/10                           
Video Codec.......: XVID                                         Release Date......:06/08/11
Audio Codec.......: AC-3                                         Theatre Date......:18/03/11
Audio Bitrate.....: 448                                          Runtime...........:1h 46mn
Subtitles.........: NIL                                          Language..........:ENGLISH
Resolution........: 720 x 384                                    IMDb URL.......... http://www.imdb.com/title/tt1606392/

DETAILS:

Video
ID                               : 0
Format                           : MPEG-4 Visual
Format profile                   : Advanced Simple@L5
Format settings, BVOP            : 2
Format settings, QPel            : No
Format settings, GMC             : No warppoints
Format settings, Matrix          : Default (H.263)
Muxing mode                      : Packed bitstream
Codec ID                         : XVID
Codec ID/Hint                    : XviD
Duration                         : 1h 46mn
Bit rate                         : 1 393 Kbps
Width                            : 720 pixels
Height                           : 384 pixels
Display aspect ratio             : 1.875
Frame rate                       : 23.976 fps
Color space                      : YUV
Chroma subsampling               : 4:2:0
Bit depth                        : 8 bits
Scan type                        : Progressive
Compression mode                 : Lossy
Bits/(Pixel*Frame)               : 0.210
Stream size                      : 1.03 GiB (75%)
Writing library                  : XviD 64

Audio
ID                               : 1
Format                           : AC-3
Format/Info                      : Audio Coding 3
Mode extension                   : CM (complete main)
Codec ID                         : 2000
Duration                         : 1h 46mn
Bit rate mode                    : Constant
Bit rate                         : 448 Kbps
Channel(s)                       : 6 channels
Channel positions                : Front: L C R, Side: L R, LFE
Sampling rate                    : 48.0 KHz
Bit depth                        : 16 bits
Compression mode                 : Lossy
Stream size                      : 340 MiB (24%)
Alignment                        : Aligned on interleaves
Interleave, duration             : 42 ms (1.00 video frame)
Interleave, preload duration     : 512 ms

Plot:
A struggling lawyer and volunteer wrestling coach's chicanery comes back to haunt him when the teenage grandson of the client he's double-crossed comes into his life.

SOURCES:
VIDEO: ...........   Win.Win.2011.BluRay.720p.DTS.x264-CHD
AUDIO: ...........   Win.Win.2011.BluRay.720p.DTS.x264-CHD

NOTES:
IMAGiNE bringing you another release.......... Win Win Ok pretty straight forward rip here with just sharpness and resized used.
Audio converted from DTS to AC3 and remuxed....
Enjoy Folks!
[/code]
Screens:
[img]http://img829.imageshack.us/img829/8121/93471749.jpg[/img]
[img]http://img20.imageshack.us/img20/7748/42873806.jpg[/img]
[img]http://img3.imageshack.us/img3/3566/48815253.jpg[/img]
[img]http://img402.imageshack.us/img402/5408/95174720.jpg[/img]
[img]http://img33.imageshack.us/img33/2272/89682112.jpg[/img]